<svg xmlns="http://www.w3.org/2000/svg" viewBox="5413.493 12.176 164.3 43.325">
  <defs>
    <style>
      .cls-1 {
        fill: #f8a808;
      }

      .cls-1, .cls-2 {
        stroke: #fff;
        stroke-miterlimit: 10;
      }

      .cls-2 {
        fill: #7f807f;
      }

      .cls-3 {
        fill: #fff;
      }
    </style>
  </defs>
  <g id="Group_10098" data-name="Group 10098" transform="translate(5400)">
    <g id="Group_10094" data-name="Group 10094" transform="translate(15 14)">
      <path id="Path_2108" data-name="Path 2108" class="cls-1" d="M23.488,1.8V35.115L1,39.729Z" transform="translate(-1 -1.8)"/>
      <path id="Path_2109" data-name="Path 2109" class="cls-2" d="M166.488,39.729,144,1.8V35.115" transform="translate(-118.619 -1.8)"/>
      <path id="Path_2110" data-name="Path 2110" class="cls-2" d="M15.3,206.281,36.9,202.5l21.3,3.727-21.423,1.651Z" transform="translate(-12.762 -166.878)"/>
    </g>
    <g id="Group_10097" data-name="Group 10097" transform="translate(67.395 27.809)">
      <g id="Group_10095" data-name="Group 10095">
        <path id="Path_2111" data-name="Path 2111" class="cls-3" d="M301.4,102.507a2.077,2.077,0,0,1-.834,1.757,2.567,2.567,0,0,1-.941.444,4.078,4.078,0,0,1-1.171.142,4.841,4.841,0,0,1-.728-.053,4.632,4.632,0,0,1-.621-.142,4.243,4.243,0,0,1-.461-.177.858.858,0,0,1-.266-.177.47.47,0,0,1-.124-.248,1.808,1.808,0,0,1-.053-.515,2.046,2.046,0,0,1,.018-.355.621.621,0,0,1,.053-.213.273.273,0,0,1,.071-.106.252.252,0,0,1,.106-.035.7.7,0,0,1,.249.089c.106.071.248.124.408.213a3.469,3.469,0,0,0,.568.213,2.323,2.323,0,0,0,.728.106,1.831,1.831,0,0,0,.461-.053,1.083,1.083,0,0,0,.355-.16.618.618,0,0,0,.231-.248.747.747,0,0,0,.071-.355.585.585,0,0,0-.142-.39,1.037,1.037,0,0,0-.373-.284,3.694,3.694,0,0,0-.532-.231c-.2-.071-.39-.142-.6-.231a3.831,3.831,0,0,1-.6-.3,2.362,2.362,0,0,1-.532-.408,1.657,1.657,0,0,1-.373-.586,2.24,2.24,0,0,1-.142-.816,2.1,2.1,0,0,1,.2-.887,1.868,1.868,0,0,1,.55-.692,2.513,2.513,0,0,1,.87-.444,3.857,3.857,0,0,1,1.154-.16,3.518,3.518,0,0,1,.621.053c.2.035.373.071.55.106a3.538,3.538,0,0,1,.408.142,1.07,1.07,0,0,1,.231.142.3.3,0,0,1,.107.106,1.222,1.222,0,0,1,.053.142.666.666,0,0,1,.018.2c0,.071.018.177.018.3a1.83,1.83,0,0,1-.018.337.662.662,0,0,1-.035.213.163.163,0,0,1-.071.106.252.252,0,0,1-.107.035.492.492,0,0,1-.213-.089c-.089-.053-.213-.106-.355-.177-.142-.053-.319-.124-.5-.177a2.448,2.448,0,0,0-.657-.089,1.6,1.6,0,0,0-.444.053.9.9,0,0,0-.319.16.541.541,0,0,0-.177.231.735.735,0,0,0-.053.284.585.585,0,0,0,.142.39,1.582,1.582,0,0,0,.373.284,3.693,3.693,0,0,0,.532.231c.2.071.408.142.6.231a3.832,3.832,0,0,1,.6.3,2.362,2.362,0,0,1,.532.408,1.656,1.656,0,0,1,.373.586A1.406,1.406,0,0,1,301.4,102.507Z" transform="translate(-296.2 -94.076)"/>
        <path id="Path_2112" data-name="Path 2112" class="cls-3" d="M340.187,100.927a6.536,6.536,0,0,1-.2,1.633,3.641,3.641,0,0,1-.568,1.242,2.447,2.447,0,0,1-.923.781,2.938,2.938,0,0,1-1.278.266,2.756,2.756,0,0,1-.55-.053,1.752,1.752,0,0,1-.479-.177,2.278,2.278,0,0,1-.461-.3c-.16-.124-.3-.248-.479-.408V107.1a.236.236,0,0,1-.053.142.619.619,0,0,1-.16.106,1.078,1.078,0,0,1-.3.071,3.57,3.57,0,0,1-.461.018,3.432,3.432,0,0,1-.461-.018,1.258,1.258,0,0,1-.3-.071.619.619,0,0,1-.16-.106.2.2,0,0,1-.053-.142V97.626a.257.257,0,0,1,.035-.124.226.226,0,0,1,.124-.089.866.866,0,0,1,.249-.053,4.3,4.3,0,0,1,.781,0,1.883,1.883,0,0,1,.248.053.176.176,0,0,1,.124.089.329.329,0,0,1,.035.124v.8q.293-.293.586-.532a3.734,3.734,0,0,1,.586-.39,2.62,2.62,0,0,1,.621-.231,2.713,2.713,0,0,1,.674-.071,2.616,2.616,0,0,1,1.278.3,2.3,2.3,0,0,1,.852.8,3.793,3.793,0,0,1,.479,1.189A4.209,4.209,0,0,1,340.187,100.927Zm-1.988.142a4.291,4.291,0,0,0-.071-.834,2.771,2.771,0,0,0-.213-.71,1.43,1.43,0,0,0-.408-.5,1.081,1.081,0,0,0-.639-.177,1.351,1.351,0,0,0-.373.053,1.776,1.776,0,0,0-.373.177,3.134,3.134,0,0,0-.408.337,3.285,3.285,0,0,0-.426.515v2.236a4.582,4.582,0,0,0,.763.781,1.311,1.311,0,0,0,.763.284,1.091,1.091,0,0,0,.639-.2,1.445,1.445,0,0,0,.426-.5,2.912,2.912,0,0,0,.248-.692A6.074,6.074,0,0,0,338.2,101.069Z" transform="translate(-326.715 -94.076)"/>
        <path id="Path_2113" data-name="Path 2113" class="cls-3" d="M384.737,98.347a3.152,3.152,0,0,1-.018.444.765.765,0,0,1-.053.266.28.28,0,0,1-.089.142.256.256,0,0,1-.124.035.239.239,0,0,1-.142-.035c-.053-.018-.107-.035-.177-.053s-.124-.035-.213-.053a1.092,1.092,0,0,0-.248-.018.7.7,0,0,0-.319.071,1.359,1.359,0,0,0-.337.2,2.43,2.43,0,0,0-.355.373,6.011,6.011,0,0,0-.408.568v4.224a.161.161,0,0,1-.053.124.343.343,0,0,1-.16.089c-.071.018-.177.035-.3.053a3.571,3.571,0,0,1-.461.018,3.432,3.432,0,0,1-.461-.018c-.124-.018-.213-.035-.3-.053a.343.343,0,0,1-.16-.089.192.192,0,0,1-.053-.124v-6.8a.256.256,0,0,1,.035-.124.219.219,0,0,1,.142-.089.866.866,0,0,1,.248-.053,2.505,2.505,0,0,1,.39-.018,2.754,2.754,0,0,1,.408.018,1.887,1.887,0,0,1,.248.053.226.226,0,0,1,.124.089.329.329,0,0,1,.036.124v.852a5.054,5.054,0,0,1,.5-.621,2.8,2.8,0,0,1,.444-.39,1.52,1.52,0,0,1,.426-.2,1.751,1.751,0,0,1,.426-.053.864.864,0,0,1,.213.018,1.039,1.039,0,0,1,.231.035,1.842,1.842,0,0,1,.213.053.38.38,0,0,1,.124.071.1.1,0,0,1,.053.089,1.124,1.124,0,0,1,.035.124.942.942,0,0,1,.018.248C384.737,98.028,384.737,98.17,384.737,98.347Z" transform="translate(-365.373 -94.158)"/>
        <path id="Path_2114" data-name="Path 2114" class="cls-3" d="M412.621,105.248l-.816,2.4a.518.518,0,0,1-.373.266,3.584,3.584,0,0,1-.887.089,1.81,1.81,0,0,1-.479-.035.658.658,0,0,1-.266-.089.259.259,0,0,1-.107-.16.535.535,0,0,1,.053-.213l.905-2.272a.451.451,0,0,1-.177-.142,1.2,1.2,0,0,1-.124-.2l-2.343-6.23a1.247,1.247,0,0,1-.106-.408.294.294,0,0,1,.089-.213.539.539,0,0,1,.3-.106,4.585,4.585,0,0,1,.568-.035,4.187,4.187,0,0,1,.515.018,1.159,1.159,0,0,1,.3.053.313.313,0,0,1,.16.142,2.065,2.065,0,0,1,.107.266l1.6,4.544h.018l1.455-4.632a.62.62,0,0,1,.124-.266.563.563,0,0,1,.248-.089,3.836,3.836,0,0,1,.586-.035,4.512,4.512,0,0,1,.55.035.674.674,0,0,1,.319.106.264.264,0,0,1,.107.231,1.311,1.311,0,0,1-.053.337Z" transform="translate(-388.074 -94.652)"/>
        <path id="Path_2115" data-name="Path 2115" class="cls-3" d="M456.394,104.277a.173.173,0,0,1-.071.16.563.563,0,0,1-.248.089,3.119,3.119,0,0,1-.479.035,1.816,1.816,0,0,1-.5-.035.4.4,0,0,1-.213-.089.225.225,0,0,1-.071-.16v-.532a3,3,0,0,1-.958.692,2.909,2.909,0,0,1-1.189.248,3.538,3.538,0,0,1-.994-.142,1.964,1.964,0,0,1-.781-.426,1.864,1.864,0,0,1-.515-.692,2.255,2.255,0,0,1-.177-.958,1.93,1.93,0,0,1,.923-1.757,3.262,3.262,0,0,1,1.154-.426,8.477,8.477,0,0,1,1.6-.142h.657v-.408a1.916,1.916,0,0,0-.071-.568.7.7,0,0,0-.213-.39.953.953,0,0,0-.391-.231,2.061,2.061,0,0,0-.621-.071,3.106,3.106,0,0,0-.852.106,4.974,4.974,0,0,0-.674.231c-.2.089-.355.16-.479.231a.674.674,0,0,1-.319.106.2.2,0,0,1-.142-.053.619.619,0,0,1-.107-.16.829.829,0,0,1-.071-.248,1.724,1.724,0,0,1-.018-.319,1.885,1.885,0,0,1,.035-.373.506.506,0,0,1,.142-.248,1.478,1.478,0,0,1,.373-.248,4.113,4.113,0,0,1,.621-.248,4.607,4.607,0,0,1,.781-.177,4.665,4.665,0,0,1,.87-.071,5.068,5.068,0,0,1,1.367.16,2.479,2.479,0,0,1,.941.479,1.784,1.784,0,0,1,.532.834,4.058,4.058,0,0,1,.16,1.207Zm-1.864-2.911H453.8a3.61,3.61,0,0,0-.8.071,1.455,1.455,0,0,0-.532.213.788.788,0,0,0-.3.337.9.9,0,0,0-.089.444.869.869,0,0,0,.266.674,1.078,1.078,0,0,0,.745.248,1.4,1.4,0,0,0,.745-.213,3.006,3.006,0,0,0,.692-.6Z" transform="translate(-422.867 -93.912)"/>
        <path id="Path_2116" data-name="Path 2116" class="cls-3" d="M498.7,102.507a2.077,2.077,0,0,1-.834,1.757,2.567,2.567,0,0,1-.941.444,4.078,4.078,0,0,1-1.171.142,4.841,4.841,0,0,1-.728-.053,4.631,4.631,0,0,1-.621-.142,4.243,4.243,0,0,1-.461-.177.858.858,0,0,1-.266-.177.47.47,0,0,1-.124-.248,1.808,1.808,0,0,1-.053-.515,2.046,2.046,0,0,1,.018-.355.621.621,0,0,1,.053-.213.273.273,0,0,1,.071-.106.252.252,0,0,1,.106-.035.7.7,0,0,1,.248.089c.107.071.249.124.408.213a3.469,3.469,0,0,0,.568.213,2.323,2.323,0,0,0,.728.106,1.832,1.832,0,0,0,.461-.053,1.084,1.084,0,0,0,.355-.16.618.618,0,0,0,.231-.248.747.747,0,0,0,.071-.355.585.585,0,0,0-.142-.39,1.037,1.037,0,0,0-.373-.284,3.7,3.7,0,0,0-.532-.231c-.2-.071-.39-.142-.6-.231a3.832,3.832,0,0,1-.6-.3,2.363,2.363,0,0,1-.532-.408,1.657,1.657,0,0,1-.373-.586,2.24,2.24,0,0,1-.142-.816,2.1,2.1,0,0,1,.2-.887,1.868,1.868,0,0,1,.55-.692,2.512,2.512,0,0,1,.87-.444,3.857,3.857,0,0,1,1.154-.16,3.518,3.518,0,0,1,.621.053c.2.035.373.071.55.106a3.534,3.534,0,0,1,.408.142,1.072,1.072,0,0,1,.231.142.3.3,0,0,1,.106.106,1.222,1.222,0,0,1,.053.142.665.665,0,0,1,.018.2c0,.071.018.177.018.3a1.833,1.833,0,0,1-.018.337.662.662,0,0,1-.036.213.163.163,0,0,1-.071.106.252.252,0,0,1-.107.035.492.492,0,0,1-.213-.089c-.089-.053-.213-.106-.355-.177-.142-.053-.319-.124-.5-.177a2.448,2.448,0,0,0-.657-.089,1.6,1.6,0,0,0-.444.053.9.9,0,0,0-.319.16.541.541,0,0,0-.177.231.736.736,0,0,0-.053.284.585.585,0,0,0,.142.39,1.583,1.583,0,0,0,.373.284,3.693,3.693,0,0,0,.532.231c.2.071.408.142.6.231a4.785,4.785,0,0,1,.6.3,2.363,2.363,0,0,1,.532.408,1.657,1.657,0,0,1,.373.586A1.278,1.278,0,0,1,498.7,102.507Z" transform="translate(-458.481 -94.076)"/>
        <path id="Path_2117" data-name="Path 2117" class="cls-3" d="M532.3,82.094a1.048,1.048,0,0,1-.231.8,1.321,1.321,0,0,1-.87.213,1.289,1.289,0,0,1-.87-.213,1.437,1.437,0,0,1,0-1.562,1.851,1.851,0,0,1,1.757-.018A1.142,1.142,0,0,1,532.3,82.094Zm-.142,9.087a.161.161,0,0,1-.053.124.343.343,0,0,1-.16.089c-.071.018-.177.035-.3.053a3.571,3.571,0,0,1-.461.018,3.432,3.432,0,0,1-.461-.018c-.124-.018-.213-.035-.3-.053a.343.343,0,0,1-.16-.089.192.192,0,0,1-.053-.124V84.4a.161.161,0,0,1,.053-.124.62.62,0,0,1,.16-.106,1.078,1.078,0,0,1,.3-.071,3.571,3.571,0,0,1,.461-.018,3.432,3.432,0,0,1,.461.018,1.258,1.258,0,0,1,.3.071.361.361,0,0,1,.16.106.192.192,0,0,1,.053.124Z" transform="translate(-488.585 -80.834)"/>
        <path id="Path_2118" data-name="Path 2118" class="cls-3" d="M556.394,104.277a.173.173,0,0,1-.071.16.563.563,0,0,1-.248.089,2.935,2.935,0,0,1-.479.035,1.816,1.816,0,0,1-.5-.035.4.4,0,0,1-.213-.089.225.225,0,0,1-.071-.16v-.532a3,3,0,0,1-.958.692,2.91,2.91,0,0,1-1.189.248,3.538,3.538,0,0,1-.994-.142,1.965,1.965,0,0,1-.781-.426,1.865,1.865,0,0,1-.515-.692,2.255,2.255,0,0,1-.177-.958,1.93,1.93,0,0,1,.923-1.757,3.261,3.261,0,0,1,1.154-.426,8.476,8.476,0,0,1,1.6-.142h.657v-.408a1.917,1.917,0,0,0-.071-.568.7.7,0,0,0-.213-.39.953.953,0,0,0-.391-.231,2.061,2.061,0,0,0-.621-.071,3.106,3.106,0,0,0-.852.106,4.973,4.973,0,0,0-.674.231c-.2.089-.355.16-.479.231a.674.674,0,0,1-.319.106.2.2,0,0,1-.142-.053.618.618,0,0,1-.107-.16.831.831,0,0,1-.071-.248,1.724,1.724,0,0,1-.018-.319,1.882,1.882,0,0,1,.036-.373.506.506,0,0,1,.142-.248,1.478,1.478,0,0,1,.373-.248,4.112,4.112,0,0,1,.621-.248,4.607,4.607,0,0,1,.781-.177,4.665,4.665,0,0,1,.87-.071,5.067,5.067,0,0,1,1.367.16,2.479,2.479,0,0,1,.941.479,1.785,1.785,0,0,1,.532.834,4.06,4.06,0,0,1,.16,1.207Zm-1.881-2.911h-.728a3.61,3.61,0,0,0-.8.071,1.455,1.455,0,0,0-.532.213.789.789,0,0,0-.3.337.9.9,0,0,0-.089.444.869.869,0,0,0,.266.674,1.078,1.078,0,0,0,.745.248,1.4,1.4,0,0,0,.745-.213,3.007,3.007,0,0,0,.692-.6v-1.171Z" transform="translate(-505.118 -93.912)"/>
        <path id="Path_2119" data-name="Path 2119" class="cls-3" d="M597.552,89.948a.161.161,0,0,1-.053.124.343.343,0,0,1-.16.089c-.071.018-.177.035-.3.053a3.569,3.569,0,0,1-.461.018,3.432,3.432,0,0,1-.461-.018c-.124-.018-.213-.035-.3-.053a.343.343,0,0,1-.16-.089.192.192,0,0,1-.053-.124V79.937a.236.236,0,0,1,.053-.142.619.619,0,0,1,.16-.106,1.078,1.078,0,0,1,.3-.071,3.571,3.571,0,0,1,.461-.018,3.431,3.431,0,0,1,.461.018,1.258,1.258,0,0,1,.3.071.619.619,0,0,1,.16.106.2.2,0,0,1,.053.142Z" transform="translate(-542.46 -79.6)"/>
        <path id="Path_2120" data-name="Path 2120" class="cls-3" d="M622.195,101.045a4.923,4.923,0,0,1-.231,1.58,3.443,3.443,0,0,1-.692,1.225,3.121,3.121,0,0,1-1.171.8,4.2,4.2,0,0,1-1.633.284,4.684,4.684,0,0,1-1.58-.248,2.846,2.846,0,0,1-1.118-.728,2.917,2.917,0,0,1-.657-1.171,5.441,5.441,0,0,1-.213-1.6,4.923,4.923,0,0,1,.231-1.58,3.443,3.443,0,0,1,.692-1.225,3.2,3.2,0,0,1,1.154-.8,4.2,4.2,0,0,1,1.633-.284,4.684,4.684,0,0,1,1.58.248,2.66,2.66,0,0,1,1.1.728,3.143,3.143,0,0,1,.657,1.171A4.443,4.443,0,0,1,622.195,101.045Zm-1.97.071a4.938,4.938,0,0,0-.089-.923,2.073,2.073,0,0,0-.266-.728,1.217,1.217,0,0,0-.515-.479,1.565,1.565,0,0,0-.8-.177,1.647,1.647,0,0,0-.745.16,1.327,1.327,0,0,0-.532.461,1.8,1.8,0,0,0-.3.728,3.96,3.96,0,0,0-.106.958,4.933,4.933,0,0,0,.089.923,2.071,2.071,0,0,0,.266.728,1.284,1.284,0,0,0,.5.479,1.771,1.771,0,0,0,.8.177,1.647,1.647,0,0,0,.745-.16,1.326,1.326,0,0,0,.532-.461,2.09,2.09,0,0,0,.3-.728A2.73,2.73,0,0,0,620.225,101.116Z" transform="translate(-558.334 -94.158)"/>
        <path id="Path_2121" data-name="Path 2121" class="cls-3" d="M667.333,97.941a1.253,1.253,0,0,1-.089.532c-.053.124-.124.177-.213.177h-.8a1.4,1.4,0,0,1,.249.408,1.5,1.5,0,0,1,.071.479,2.753,2.753,0,0,1-.2,1.047,2.064,2.064,0,0,1-.568.781,2.52,2.52,0,0,1-.887.479,3.941,3.941,0,0,1-1.154.16,2.386,2.386,0,0,1-.621-.089,1.244,1.244,0,0,1-.461-.2,1.069,1.069,0,0,0-.16.231.584.584,0,0,0-.071.3.432.432,0,0,0,.2.355,1.066,1.066,0,0,0,.55.16l1.651.053a4.321,4.321,0,0,1,1.029.16,2.38,2.38,0,0,1,.763.39,1.827,1.827,0,0,1,.479.621,1.971,1.971,0,0,1,.16.816,2.092,2.092,0,0,1-.213.941,2.275,2.275,0,0,1-.657.781,3.515,3.515,0,0,1-1.1.515,5.772,5.772,0,0,1-1.562.2,6.9,6.9,0,0,1-1.473-.142,3.352,3.352,0,0,1-1.012-.373,1.492,1.492,0,0,1-.568-.586,1.541,1.541,0,0,1-.177-.745,1.494,1.494,0,0,1,.071-.479,1.411,1.411,0,0,1,.2-.444,2.09,2.09,0,0,1,.3-.39,4.572,4.572,0,0,1,.426-.373,1.179,1.179,0,0,1-.5-.479,1.218,1.218,0,0,1-.177-.657,1.6,1.6,0,0,1,.213-.816,2.7,2.7,0,0,1,.532-.657,2.015,2.015,0,0,1-.426-.639,2.327,2.327,0,0,1-.16-.923,2.593,2.593,0,0,1,.213-1.065,2.389,2.389,0,0,1,.586-.8,2.876,2.876,0,0,1,.887-.5A3.81,3.81,0,0,1,663.8,97c.213,0,.426.018.621.035a2.746,2.746,0,0,1,.55.106h2.148a.24.24,0,0,1,.213.16C667.316,97.5,667.333,97.674,667.333,97.941Zm-2.006,7.029a.611.611,0,0,0-.266-.532,1.284,1.284,0,0,0-.745-.2l-1.367-.035a2.58,2.58,0,0,0-.32.284c-.071.089-.142.177-.2.248a.473.473,0,0,0-.089.231,1.011,1.011,0,0,0-.018.231.639.639,0,0,0,.391.586,2.51,2.51,0,0,0,1.083.2,2.809,2.809,0,0,0,.728-.089,1.506,1.506,0,0,0,.479-.231.884.884,0,0,0,.266-.319A1.35,1.35,0,0,0,665.328,104.969Zm-.444-5.431a1.157,1.157,0,0,0-.3-.852,1.186,1.186,0,0,0-.852-.3,1.381,1.381,0,0,0-.5.089.894.894,0,0,0-.355.266,1.276,1.276,0,0,0-.213.373,1.324,1.324,0,0,0-.071.461,1.127,1.127,0,0,0,.3.816,1.157,1.157,0,0,0,.852.3,1.381,1.381,0,0,0,.5-.089.858.858,0,0,0,.355-.248,1.278,1.278,0,0,0,.213-.373A1.226,1.226,0,0,0,664.884,99.538Z" transform="translate(-595.841 -93.912)"/>
        <path id="Path_2122" data-name="Path 2122" class="cls-3" d="M707.6,82.094a1.048,1.048,0,0,1-.231.8,1.321,1.321,0,0,1-.87.213,1.289,1.289,0,0,1-.87-.213,1.437,1.437,0,0,1,0-1.562,1.851,1.851,0,0,1,1.757-.018A1.142,1.142,0,0,1,707.6,82.094Zm-.142,9.087a.161.161,0,0,1-.053.124.343.343,0,0,1-.16.089c-.071.018-.177.035-.3.053a3.569,3.569,0,0,1-.461.018,3.432,3.432,0,0,1-.461-.018c-.124-.018-.213-.035-.3-.053a.343.343,0,0,1-.16-.089.192.192,0,0,1-.053-.124V84.4a.161.161,0,0,1,.053-.124.62.62,0,0,1,.16-.106,1.078,1.078,0,0,1,.3-.071,3.571,3.571,0,0,1,.461-.018,3.431,3.431,0,0,1,.461.018,1.258,1.258,0,0,1,.3.071.361.361,0,0,1,.16.106.192.192,0,0,1,.053.124Z" transform="translate(-632.771 -80.834)"/>
        <path id="Path_2123" data-name="Path 2123" class="cls-3" d="M730.6,102.507a2.239,2.239,0,0,1-.213,1.012,2.09,2.09,0,0,1-.621.745,2.567,2.567,0,0,1-.941.444,4.078,4.078,0,0,1-1.171.142,4.84,4.84,0,0,1-.728-.053,4.629,4.629,0,0,1-.621-.142,4.241,4.241,0,0,1-.461-.177.857.857,0,0,1-.266-.177.47.47,0,0,1-.124-.248,1.811,1.811,0,0,1-.053-.515,2.043,2.043,0,0,1,.018-.355.619.619,0,0,1,.053-.213.273.273,0,0,1,.071-.106.252.252,0,0,1,.107-.035.7.7,0,0,1,.248.089c.107.071.248.124.408.213.16.071.355.142.568.213a2.323,2.323,0,0,0,.728.106,1.831,1.831,0,0,0,.461-.053,1.083,1.083,0,0,0,.355-.16.619.619,0,0,0,.231-.248.748.748,0,0,0,.071-.355.585.585,0,0,0-.142-.39,1.037,1.037,0,0,0-.373-.284,3.694,3.694,0,0,0-.532-.231c-.2-.071-.39-.142-.6-.231a3.834,3.834,0,0,1-.6-.3,2.363,2.363,0,0,1-.532-.408,1.657,1.657,0,0,1-.373-.586,2.24,2.24,0,0,1-.142-.816,2.1,2.1,0,0,1,.2-.887,1.869,1.869,0,0,1,.55-.692,2.513,2.513,0,0,1,.87-.444,3.857,3.857,0,0,1,1.154-.16,3.519,3.519,0,0,1,.621.053c.2.035.391.071.55.106a3.537,3.537,0,0,1,.408.142,1.069,1.069,0,0,1,.231.142.3.3,0,0,1,.107.106,1.212,1.212,0,0,1,.053.142c.018.053.018.124.036.2,0,.071.018.177.018.3a1.83,1.83,0,0,1-.018.337.662.662,0,0,1-.036.213.163.163,0,0,1-.071.106.252.252,0,0,1-.107.035.492.492,0,0,1-.213-.089c-.089-.053-.213-.106-.355-.177-.142-.053-.32-.124-.5-.177a2.448,2.448,0,0,0-.657-.089,1.6,1.6,0,0,0-.444.053.9.9,0,0,0-.319.16.541.541,0,0,0-.177.231.735.735,0,0,0-.053.284.585.585,0,0,0,.142.39,1.582,1.582,0,0,0,.373.284,3.692,3.692,0,0,0,.532.231c.2.071.408.142.6.231a4.781,4.781,0,0,1,.6.3,2.364,2.364,0,0,1,.532.408,1.657,1.657,0,0,1,.373.586A1.565,1.565,0,0,1,730.6,102.507Z" transform="translate(-649.222 -94.076)"/>
        <path id="Path_2124" data-name="Path 2124" class="cls-3" d="M764.472,84.135a.6.6,0,0,1,.444.142.545.545,0,0,1,.124.39v6.514a.161.161,0,0,1-.053.124.343.343,0,0,1-.16.089,2.469,2.469,0,0,1-.3.053,3.57,3.57,0,0,1-.461.018,3.432,3.432,0,0,1-.461-.018c-.124-.018-.231-.035-.3-.053a.343.343,0,0,1-.16-.089.192.192,0,0,1-.053-.124V85.7h-3.053v3.195a1.5,1.5,0,0,0,.177.834.7.7,0,0,0,.621.284,1.175,1.175,0,0,0,.266-.018,1.841,1.841,0,0,0,.213-.053.824.824,0,0,0,.16-.053.329.329,0,0,1,.124-.035c.035,0,.053.018.089.035a.163.163,0,0,1,.071.106.662.662,0,0,1,.036.213,2.05,2.05,0,0,1,.018.355,3.466,3.466,0,0,1-.035.515.461.461,0,0,1-.107.248.5.5,0,0,1-.213.142,3.348,3.348,0,0,1-.319.106,2.547,2.547,0,0,1-.391.071,3.418,3.418,0,0,1-.426.018,3.355,3.355,0,0,1-.994-.142,1.558,1.558,0,0,1-.692-.444,1.964,1.964,0,0,1-.408-.763,3.865,3.865,0,0,1-.124-1.083V85.75h-.816a.22.22,0,0,1-.213-.177,1.674,1.674,0,0,1-.071-.6,2.389,2.389,0,0,1,.018-.373,1.52,1.52,0,0,1,.053-.231.226.226,0,0,1,.089-.124.329.329,0,0,1,.124-.035h.8V82.7a.417.417,0,0,1,.036-.142.41.41,0,0,1,.16-.106.707.707,0,0,1,.3-.053,3.572,3.572,0,0,1,.461-.018,3.432,3.432,0,0,1,.461.018c.124.018.231.035.3.053a.619.619,0,0,1,.16.106.2.2,0,0,1,.053.142v1.509h4.455Zm.728-2.041a1.048,1.048,0,0,1-.231.8,1.321,1.321,0,0,1-.87.213,1.289,1.289,0,0,1-.87-.213,1.437,1.437,0,0,1,0-1.562,1.851,1.851,0,0,1,1.757-.018A1.142,1.142,0,0,1,765.2,82.094Z" transform="translate(-675.213 -80.834)"/>
        <path id="Path_2125" data-name="Path 2125" class="cls-3" d="M816.273,103.423a1.931,1.931,0,0,1-.018.337.9.9,0,0,1-.035.231,1.222,1.222,0,0,1-.053.142.408.408,0,0,1-.124.142,1.6,1.6,0,0,1-.32.213,3.224,3.224,0,0,1-.5.231,3.178,3.178,0,0,1-.621.16,4.319,4.319,0,0,1-.674.053,3.7,3.7,0,0,1-1.384-.248,2.475,2.475,0,0,1-1.012-.728,3.429,3.429,0,0,1-.621-1.154,5.277,5.277,0,0,1-.213-1.562,5.745,5.745,0,0,1,.249-1.757,3.186,3.186,0,0,1,.71-1.225,2.847,2.847,0,0,1,1.083-.728,3.745,3.745,0,0,1,1.367-.231,3.466,3.466,0,0,1,.6.053,4.979,4.979,0,0,1,.55.142,1.835,1.835,0,0,1,.461.213,1.08,1.08,0,0,1,.284.2c.053.053.089.106.124.142a1.223,1.223,0,0,1,.053.142c.018.053.018.142.036.231,0,.089.018.2.018.319a1.723,1.723,0,0,1-.071.621c-.053.124-.124.177-.2.177a.426.426,0,0,1-.266-.106c-.089-.071-.213-.142-.337-.231a2.01,2.01,0,0,0-.479-.231,1.819,1.819,0,0,0-.657-.106,1.313,1.313,0,0,0-1.136.568,2.962,2.962,0,0,0-.391,1.686,3.76,3.76,0,0,0,.107.958,1.777,1.777,0,0,0,.3.692,1.1,1.1,0,0,0,.479.426,1.635,1.635,0,0,0,.674.142,1.528,1.528,0,0,0,.674-.124,1.884,1.884,0,0,0,.5-.266,2.048,2.048,0,0,0,.355-.266.466.466,0,0,1,.248-.124.15.15,0,0,1,.107.035c.036.018.053.071.071.142a1.073,1.073,0,0,1,.036.266A3.013,3.013,0,0,1,816.273,103.423Z" transform="translate(-719.382 -94.158)"/>
        <path id="Path_2126" data-name="Path 2126" class="cls-3" d="M852.7,102.507a2.077,2.077,0,0,1-.834,1.757,2.566,2.566,0,0,1-.941.444,4.078,4.078,0,0,1-1.171.142,4.841,4.841,0,0,1-.728-.053,4.632,4.632,0,0,1-.621-.142,4.246,4.246,0,0,1-.461-.177.859.859,0,0,1-.266-.177.47.47,0,0,1-.124-.248,1.808,1.808,0,0,1-.053-.515,2.043,2.043,0,0,1,.018-.355.62.62,0,0,1,.053-.213.272.272,0,0,1,.071-.106.252.252,0,0,1,.107-.035.7.7,0,0,1,.248.089c.107.071.248.124.408.213.16.071.355.142.568.213a2.323,2.323,0,0,0,.728.106,1.831,1.831,0,0,0,.461-.053,1.084,1.084,0,0,0,.355-.16.618.618,0,0,0,.231-.248.747.747,0,0,0,.071-.355.585.585,0,0,0-.142-.39,1.037,1.037,0,0,0-.373-.284,3.7,3.7,0,0,0-.532-.231c-.2-.071-.391-.142-.6-.231a3.831,3.831,0,0,1-.6-.3,2.364,2.364,0,0,1-.532-.408,1.657,1.657,0,0,1-.373-.586,2.24,2.24,0,0,1-.142-.816,2.1,2.1,0,0,1,.2-.887,1.869,1.869,0,0,1,.55-.692,2.513,2.513,0,0,1,.87-.444,3.856,3.856,0,0,1,1.154-.16,3.519,3.519,0,0,1,.621.053c.2.035.39.071.55.106a3.529,3.529,0,0,1,.408.142,1.071,1.071,0,0,1,.231.142.3.3,0,0,1,.107.106,1.234,1.234,0,0,1,.053.142c.018.053.018.124.036.2,0,.071.018.177.018.3a1.836,1.836,0,0,1-.018.337.662.662,0,0,1-.036.213.163.163,0,0,1-.071.106.252.252,0,0,1-.107.035.492.492,0,0,1-.213-.089c-.089-.053-.213-.106-.355-.177-.142-.053-.319-.124-.5-.177a2.448,2.448,0,0,0-.657-.089,1.6,1.6,0,0,0-.444.053.9.9,0,0,0-.32.16.542.542,0,0,0-.177.231.736.736,0,0,0-.053.284.585.585,0,0,0,.142.39,1.583,1.583,0,0,0,.373.284,3.693,3.693,0,0,0,.532.231c.2.071.408.142.6.231a3.831,3.831,0,0,1,.6.3,2.361,2.361,0,0,1,.532.408,1.657,1.657,0,0,1,.373.586A1.4,1.4,0,0,1,852.7,102.507Z" transform="translate(-749.65 -94.076)"/>
      </g>
      <g id="Group_10096" data-name="Group 10096" transform="translate(103.689 3.248)">
        <path id="Path_2127" data-name="Path 2127" class="cls-3" d="M882.885,98.2v.124a.768.768,0,0,1-.018.089c0,.018-.018.035-.035.053a.055.055,0,0,1-.036.018h-.816v2.627a.065.065,0,0,1-.018.053c-.018.018-.035.018-.053.035a.627.627,0,0,1-.107.018h-.319c-.036,0-.071-.018-.107-.018-.018,0-.036-.018-.053-.035a.065.065,0,0,1-.018-.053V98.468h-.816c-.018,0-.035,0-.035-.018a.136.136,0,0,1-.036-.053.768.768,0,0,1-.018-.089V98.06a.768.768,0,0,1,.018-.089c0-.018.018-.035.036-.053s.018-.018.035-.018H882.8c.018,0,.036,0,.036.018a.138.138,0,0,1,.036.053.771.771,0,0,1,.018.089Z" transform="translate(-880.4 -97.9)"/>
        <path id="Path_2128" data-name="Path 2128" class="cls-3" d="M900.023,101.195a.065.065,0,0,1-.018.053.137.137,0,0,1-.053.035.629.629,0,0,1-.107.018h-.319a.766.766,0,0,1-.089-.018c-.018,0-.036-.018-.053-.035a.065.065,0,0,1-.018-.053V98.532h0l-.958,2.662c0,.018-.018.035-.035.053s-.036.018-.071.035a.626.626,0,0,1-.106.018h-.284c-.036,0-.071-.018-.107-.018-.018-.018-.053-.018-.071-.035s-.018-.035-.036-.053l-.923-2.662h0v2.662a.065.065,0,0,1-.018.053c-.018.018-.036.018-.053.035a.626.626,0,0,1-.106.018h-.32c-.035,0-.071-.018-.106-.018-.018,0-.036-.018-.053-.035a.065.065,0,0,1-.018-.053V98.266a.221.221,0,0,1,.071-.2.228.228,0,0,1,.177-.071h.444a.666.666,0,0,1,.2.018.357.357,0,0,1,.142.071.769.769,0,0,1,.106.124.531.531,0,0,1,.071.177l.71,1.952h.018l.728-1.952a1.857,1.857,0,0,1,.071-.177.319.319,0,0,1,.089-.124.286.286,0,0,1,.124-.071.491.491,0,0,1,.16-.018h.444a.263.263,0,0,1,.124.018c.035.018.053.035.089.053a.388.388,0,0,1,.053.089.225.225,0,0,1,.018.106v2.929Z" transform="translate(-893.314 -97.982)"/>
      </g>
    </g>
  </g>
</svg>
