<svg xmlns="http://www.w3.org/2000/svg" viewBox="16 9 137.246 40.01">
  <defs>
    <style>
      .cls-1 {
        fill: #8bc53f;
      }

      .cls-2 {
        fill: #fff;
        fill-rule: evenodd;
      }
    </style>
  </defs>
  <g id="Group_3" data-name="Group 3" transform="translate(-6)">
    <g id="Group_1" data-name="Group 1" transform="translate(23.707 40.538)">
      <path id="Path_1" data-name="Path 1" class="cls-1" d="M1.1,20.5h.615v.923H1.1Zm0,1.846h.615v4.769H1.1Z" transform="translate(-1.1 -20.5)"/>
      <path id="Path_2" data-name="Path 2" class="cls-1" d="M2.5,21.754h.615v.769h0A1.421,1.421,0,0,1,4.654,21.6c1.385,0,1.692.769,1.692,1.846v3.077H5.731V23.6c0-.769-.308-1.385-1.231-1.385a1.581,1.581,0,0,0-1.538,1.692v2.769H2.5Z" transform="translate(-0.346 -19.908)"/>
      <path id="Path_3" data-name="Path 3" class="cls-1" d="M6.469,22.808H5.7v-.462h.769v-.462c0-.769.154-1.385,1.077-1.385h.462v.462H7.546c-.615,0-.615.462-.615.923v.462h.923v.462H7.085v4.308H6.469ZM8.623,20.5h.615v.923H8.623Zm0,1.846h.615v4.769H8.623Z" transform="translate(1.377 -20.5)"/>
      <path id="Path_4" data-name="Path 4" class="cls-1" d="M9,21.754h.615v.769h0a1.421,1.421,0,0,1,1.538-.923c1.385,0,1.692.769,1.692,1.846v3.077H12.23V23.6c0-.769-.308-1.385-1.231-1.385a1.581,1.581,0,0,0-1.538,1.692v2.769H9Z" transform="translate(3.154 -19.908)"/>
      <path id="Path_5" data-name="Path 5" class="cls-1" d="M12.5,20.5h.615v.923H12.5Zm0,1.846h.615v4.769H12.5Z" transform="translate(5.038 -20.5)"/>
      <path id="Path_6" data-name="Path 6" class="cls-1" d="M14.985,22.185h.923v.462h-.923v3.231c0,.308,0,.615.462.615h.462v.462h-.462c-.769,0-1.077-.308-1.077-1.077V22.646H13.6v-.462h.769V20.8h.615Z" transform="translate(5.631 -20.338)"/>
      <path id="Path_7" data-name="Path 7" class="cls-1" d="M16.262,24.215A1.7,1.7,0,0,0,17.8,26.062a1.62,1.62,0,0,0,1.538-1.231h.615a1.981,1.981,0,0,1-2,1.692A2.18,2.18,0,0,1,15.8,24.062,2.18,2.18,0,0,1,17.954,21.6c1.538,0,2.154,1.385,2.154,2.615Zm3.077-.462a1.545,1.545,0,1,0-3.077,0Z" transform="translate(6.815 -19.908)"/>
      <rect id="Rectangle_2" data-name="Rectangle 2" class="cls-1" width="0.769" height="0.923" transform="translate(34.308 5.538)"/>
      <path id="Path_8" data-name="Path 8" class="cls-1" d="M31.977,23.138a1.09,1.09,0,0,0-1.231-1.077c-.462,0-1.077.154-1.077.769,0,.462.615.769.923.769l.769.154c.615.154,1.385.462,1.385,1.385,0,1.077-1.077,1.385-1.846,1.385a1.777,1.777,0,0,1-2-1.692h.615A1.257,1.257,0,0,0,30.9,26.062c.615,0,1.231-.308,1.231-.923s-.462-.769-1.077-.923l-.769-.154a1.09,1.09,0,0,1-1.231-1.077c0-.923.923-1.385,1.846-1.385a1.5,1.5,0,0,1,1.692,1.538Z" transform="translate(13.869 -19.908)"/>
      <path id="Path_9" data-name="Path 9" class="cls-1" d="M32.2,21.754h.462v.769h0A1.545,1.545,0,0,1,34.2,21.6a1.346,1.346,0,0,1,1.385.923,1.692,1.692,0,0,1,1.538-.923c1.077,0,1.538.615,1.538,1.692v3.231h-.615V23.292c0-.769-.308-1.231-1.077-1.231-.923,0-1.231.769-1.231,1.692v2.615h-.615v-3.23c0-.615-.308-1.231-.923-1.231-.923,0-1.385.769-1.385,1.692v2.615H32.2Z" transform="translate(15.646 -19.908)"/>
      <path id="Path_10" data-name="Path 10" class="cls-1" d="M37.554,23.138c0-1.077.769-1.538,1.846-1.538a1.483,1.483,0,0,1,1.692,1.538V25.6a.331.331,0,0,0,.308.308h.154v.462h-.308c-.615,0-.615-.308-.615-.769h0a1.767,1.767,0,0,1-1.692.923c-.923,0-1.538-.462-1.538-1.385,0-1.385,1.231-1.385,2.462-1.538.462,0,.769-.154.769-.615,0-.769-.615-.923-1.231-.923-.769,0-1.231.308-1.231,1.077h-.615Zm3.077.769h0a.565.565,0,0,1-.462.154c-.923.154-2.154.154-2.154,1.077,0,.615.462.923,1.077.923a1.581,1.581,0,0,0,1.692-1.538v-.615Z" transform="translate(18.446 -19.908)"/>
      <path id="Path_11" data-name="Path 11" class="cls-1" d="M40.9,21.754h.462v1.077h0A1.855,1.855,0,0,1,43.208,21.6v.615a1.614,1.614,0,0,0-1.692,1.692v2.462H40.9Z" transform="translate(20.331 -19.908)"/>
      <path id="Path_12" data-name="Path 12" class="cls-1" d="M44.185,22.185h.923v.462h-.923v3.231c0,.308,0,.615.462.615h.462v.462h-.462c-.769,0-1.077-.308-1.077-1.077V22.646H42.8v-.462h.769V20.8h.615Z" transform="translate(21.354 -20.338)"/>
      <rect id="Rectangle_3" data-name="Rectangle 3" class="cls-1" width="0.769" height="0.923" transform="translate(74.154 5.538)"/>
      <rect id="Rectangle_4" data-name="Rectangle 4" class="cls-1" width="0.615" height="6.615" transform="translate(82.769)"/>
      <path id="Path_13" data-name="Path 13" class="cls-1" d="M60.715,24.062a2.222,2.222,0,0,1-2.308,2.462A2.306,2.306,0,0,1,56.1,24.062,2.222,2.222,0,0,1,58.408,21.6a2.4,2.4,0,0,1,2.308,2.462m-4,0a1.791,1.791,0,0,0,1.692,2,1.879,1.879,0,0,0,1.692-2,1.791,1.791,0,0,0-1.692-2,1.879,1.879,0,0,0-1.692,2" transform="translate(28.515 -19.908)"/>
      <path id="Path_14" data-name="Path 14" class="cls-1" d="M64.008,26.062c0,1.385-.615,2.308-2.154,2.308a1.871,1.871,0,0,1-2-1.385h.615c.154.769.769.923,1.385.923,1.077,0,1.538-.615,1.538-1.846v-.615h0a1.545,1.545,0,0,1-1.538.923c-1.538,0-2.154-1.077-2.154-2.462A2.141,2.141,0,0,1,61.854,21.6a2.04,2.04,0,0,1,1.538.923h0v-.769h.615v4.308Zm-.615-2c0-.923-.462-2-1.538-2s-1.538.923-1.538,2c0,.923.462,1.846,1.538,1.846s1.538-.923,1.538-1.846" transform="translate(30.454 -19.908)"/>
      <path id="Path_15" data-name="Path 15" class="cls-1" d="M63.5,20.5h.615v.923H63.5Zm0,1.846h.615v4.769H63.5Z" transform="translate(32.5 -20.5)"/>
      <path id="Path_16" data-name="Path 16" class="cls-1" d="M67.877,23.192a1.09,1.09,0,0,0-1.231-1.077c-.462,0-1.077.154-1.077.769,0,.462.615.769.923.769l.769.154c.615.154,1.385.462,1.385,1.385,0,1.077-1.077,1.385-1.846,1.385a1.777,1.777,0,0,1-2-1.692h.615a1.257,1.257,0,0,0,1.385,1.23c.615,0,1.231-.308,1.231-.923s-.462-.769-1.077-.923l-.769-.154c-.769-.154-1.385-.462-1.385-1.231,0-.923.923-1.385,1.846-1.385a1.5,1.5,0,0,1,1.692,1.538h-.462Z" transform="translate(33.2 -19.962)"/>
      <path id="Path_17" data-name="Path 17" class="cls-1" d="M69.185,22.185h.923v.462h-.923v3.231c0,.308,0,.615.462.615h.462v.462h-.462c-.769,0-1.077-.308-1.077-1.077V22.646H67.8v-.462h.769V20.8h.615v1.385Z" transform="translate(34.815 -20.338)"/>
      <path id="Path_18" data-name="Path 18" class="cls-1" d="M70.2,20.5h.615v.923H70.2Zm0,1.846h.615v4.769H70.2Z" transform="translate(36.108 -20.5)"/>
      <path id="Path_19" data-name="Path 19" class="cls-1" d="M74.992,23.238a1.226,1.226,0,0,0-1.385-1.077,1.879,1.879,0,0,0-1.692,2,1.791,1.791,0,0,0,1.692,2c.769,0,1.231-.615,1.385-1.385h.615a2.008,2.008,0,0,1-2,1.846,2.306,2.306,0,0,1-2.307-2.46A2.222,2.222,0,0,1,73.608,21.7a1.659,1.659,0,0,1,1.846,1.692h-.462Z" transform="translate(36.7 -19.854)"/>
      <path id="Path_20" data-name="Path 20" class="cls-1" d="M77.877,23.192a1.09,1.09,0,0,0-1.231-1.077c-.462,0-1.077.154-1.077.769,0,.462.615.769.923.769l.769.154c.615.154,1.385.462,1.385,1.385,0,1.077-1.077,1.385-1.846,1.385a1.777,1.777,0,0,1-2-1.692h.615a1.257,1.257,0,0,0,1.385,1.23c.615,0,1.231-.308,1.231-.923s-.462-.769-1.077-.923l-.769-.154c-.769-.154-1.385-.462-1.385-1.231,0-.923.923-1.385,1.846-1.385a1.5,1.5,0,0,1,1.692,1.538h-.462Z" transform="translate(38.585 -19.962)"/>
    </g>
    <path id="Path_21" data-name="Path 21" class="cls-2" d="M4.923,19.892H0a6.071,6.071,0,0,0,2.154,5.077c1.385,1.077,3.385,1.692,6.308,1.692,5.385,0,8.923-1.692,8.923-6.462A4.874,4.874,0,0,0,16,16.662c-1.077-1.077-3.077-1.846-6.615-2.615-2.615-.462-4-1.231-4-2.308S6.462,10.2,8.462,10.2c1.692,0,2.769.462,3.077,1.385a2.139,2.139,0,0,0,2.154,1.231H16.77a5.962,5.962,0,0,0-2.154-4.923A10.1,10.1,0,0,0,8.462,6.2C3.846,6.2.615,8.2.615,12.508c0,3.077,2.308,5.077,6.615,5.846,3.538.615,5.231,1.385,5.231,2.462,0,1.385-1.077,2-3.231,2-2.462,0-4.154-.769-4.308-2.923" transform="translate(22.015 12.338)"/>
    <path id="Path_22" data-name="Path 22" class="cls-2" d="M21.062,10.508c2.308,0,3.385,1.077,3.538,3.077V26.2h4.615V13.585c0-2,1.231-3.077,3.385-3.077,2.308,0,3.385,1.077,3.538,3.077V23.738c0,1.538.769,2.308,2.462,2.462h2.462V14.508C41.062,8.97,38.293,6.2,32.6,6.2c-2.615,0-4.462.462-5.846,1.538C25.523,6.662,23.523,6.2,21.062,6.2,15.37,6.2,12.6,8.815,12.6,14.508V26.2h4.923V13.585c0-2.154,1.231-3.077,3.538-3.077" transform="translate(28.8 12.338)"/>
    <path id="Path_23" data-name="Path 23" class="cls-2" d="M41.062,10.046c2.154,0,3.231.615,3.385,1.692,0,1.077-1.077,1.692-3.385,2C35.985,14.2,32.754,15.43,32.6,20.2c0,4.308,3.077,6.462,7.846,6.154,5.538-.308,8.615-2.769,8.615-8.154V11.431C48.908,7.892,46.292,6.2,40.754,6.2c-4.615,0-7.077,1.692-7.692,5.231h4.769q.462-1.385,3.231-1.385M39.831,22.2a2.274,2.274,0,0,1-2.615-2.308q0-2.077,3.231-2.769A26.626,26.626,0,0,0,44.6,15.892v1.846c-.154,2.923-1.846,4.462-4.769,4.462" transform="translate(39.569 12.338)"/>
    <path id="Path_24" data-name="Path 24" class="cls-2" d="M52.6,26.038h4.923V15.731c0-2.462.923-8.769,2.923-9.231h0q-7.615.923-7.846,9.231Z" transform="translate(50.338 12.5)"/>
    <path id="Path_25" data-name="Path 25" class="cls-2" d="M63.862,5.538V2.462A2.378,2.378,0,0,0,61.708,0H59.4V26c0,2.154.769,3.385,2.615,3.538a27.923,27.923,0,0,0,5.077,0V25.846H65.554c-1.077,0-1.538-.462-1.538-1.385V5.538Z" transform="translate(54 9)"/>
    <path id="Path_26" data-name="Path 26" class="cls-2" d="M57.062,7.738V4.662A2.378,2.378,0,0,0,54.908,2.2H52.6v8.769h4.615V7.738Z" transform="translate(50.338 10.185)"/>
    <path id="Path_27" data-name="Path 27" class="cls-2" d="M73.423,10.454c2.615,0,3.846,2,3.846,5.846,0,4-1.385,6-3.846,6-2.615,0-3.846-2-3.846-5.846,0-4,1.231-6,3.846-6m0-4.154c-6,0-8.923,3.231-8.923,10.154,0,6.769,2.923,10,8.923,10,5.846,0,8.769-3.231,8.769-10,0-6.923-2.769-10.154-8.769-10.154" transform="translate(56.746 12.392)"/>
    <path id="Path_28" data-name="Path 28" class="cls-2" d="M85.346,26.454a6.481,6.481,0,0,0,5.692-2.769v2c0,3.231-1.385,4.769-4,4.769-2.154,0-3.231-.769-3.538-2.154H78.115c1.077,4.154,3.846,6,8.308,6,6.308-.154,9.077-2.308,9.077-7.385V15.069c0-6-2.923-8.769-8.923-8.769-6.154.154-9.077,3.077-9.077,9.846.154,7.077,2.615,10.308,7.846,10.308M86.731,22.3q-4.154,0-4.154-6c0-4.154,1.385-6.308,4.308-6.308s4.308,2.154,4.308,6.308c-.308,4-1.692,6-4.462,6" transform="translate(63.746 12.392)"/>
    <path id="Path_29" data-name="Path 29" class="cls-2" d="M44.8,25.985h4.923V15.677c0-2.923,1.385-4.308,4.154-4.308h.769V6.6c-5.692.462-9.692,3.385-9.846,9.231Z" transform="translate(46.138 12.554)"/>
  </g>
</svg>
