<svg xmlns="http://www.w3.org/2000/svg" viewBox="468.834 130 427.805 49.726">
  <defs>
    <style>
      .cls-1 {
        fill: #16759b;
      }

      .cls-2 {
        fill: #f7f9fb;
      }

      .cls-3 {
        fill: #fff;
        font-size: 19px;
        font-family: Roboto-Regular, Roboto;
      }
    </style>
  </defs>
  <g id="new_event" data-name="new event" transform="translate(468.834 130)">
    <rect id="rec" class="cls-1" width="427.805" height="49.726" transform="translate(0)"/>
    <path id="event_icon" data-name="event icon" class="cls-2" d="M26.935,2.763H24.172V.691a.691.691,0,1,0-1.381,0V2.763H6.768V.691A.652.652,0,0,0,6.078,0a.652.652,0,0,0-.691.691V2.763H2.763A2.771,2.771,0,0,0,0,5.525V27.073a2.771,2.771,0,0,0,2.763,2.763h24.31a2.771,2.771,0,0,0,2.763-2.763V5.387A2.869,2.869,0,0,0,26.935,2.763Zm1.381,24.172a1.384,1.384,0,0,1-1.381,1.381H2.763a1.384,1.384,0,0,1-1.381-1.381V10.774H28.316Zm0-17.542H1.381V5.387A1.384,1.384,0,0,1,2.763,4.006H5.525V6.078a.652.652,0,0,0,.691.691.652.652,0,0,0,.691-.691V4.006H23.067V6.078a.691.691,0,1,0,1.381,0V4.006h2.763a1.384,1.384,0,0,1,1.381,1.381V9.393ZM19.614,25h1.243V14.227H19.89c-.138.414-.138.691-.414.967-.138.276-.414.414-.691.691a2,2,0,0,1-.967.276c-.276,0-.691.138-1.105.138V17.4h2.763V25Zm-6.492-1.519c-.276.138-.414.276-.691.414a1.752,1.752,0,0,1-.829.138,2.287,2.287,0,0,1-1.658-.691,2.2,2.2,0,0,1-.553-1.658H8.011a2.732,2.732,0,0,0,.276,1.519,3.008,3.008,0,0,0,.691,1.105,8.2,8.2,0,0,0,1.105.553,4.966,4.966,0,0,0,1.519.276A4.258,4.258,0,0,0,12.984,25a2.776,2.776,0,0,0,1.105-.553,6.007,6.007,0,0,0,.829-.967,4.087,4.087,0,0,0,.276-1.381,2.946,2.946,0,0,0-.414-1.658,2.533,2.533,0,0,0-1.381-.967h0a2.148,2.148,0,0,0,1.105-.829,2.228,2.228,0,0,0,.414-1.243,2.758,2.758,0,0,0-.276-1.243,2.478,2.478,0,0,0-.691-.967,3.462,3.462,0,0,0-.967-.553,3.824,3.824,0,0,0-1.243-.138,4.086,4.086,0,0,0-1.381.276,2.478,2.478,0,0,0-.967.691,2.776,2.776,0,0,0-.553,1.105c-.414,0-.553.553-.553.967H9.531a2.7,2.7,0,0,1,.138-.967c.138-.276.138-.553.414-.691a1.379,1.379,0,0,1,.691-.553,5.982,5.982,0,0,1,.691-.138,2.333,2.333,0,0,1,1.381.414,1.346,1.346,0,0,1,.553,1.243,1.752,1.752,0,0,1-.138.829,1.907,1.907,0,0,1-.414.553,1.055,1.055,0,0,1-.691.276,1.752,1.752,0,0,1-.829.138h-.414v1.105H11.6a1.752,1.752,0,0,1,.829.138,3.019,3.019,0,0,1,.691.414,1.174,1.174,0,0,1,.414.691,1.752,1.752,0,0,1,.138.829,1.752,1.752,0,0,1-.138.829A.984.984,0,0,1,13.122,23.482Z" transform="translate(373.439 9.945)"/>
    <text id="New_event-2" data-name="New event" class="cls-3" transform="translate(24.531 31.26)"><tspan x="0" y="0">New event</tspan></text>
  </g>
</svg>
