<svg xmlns="http://www.w3.org/2000/svg" viewBox="922.497 130 427.805 49.726">
  <defs>
    <style>
      .cls-1 {
        fill: #16759b;
      }

      .cls-2 {
        fill: #f6f8fa;
      }

      .cls-3 {
        fill: #fff;
        font-size: 19px;
        font-family: Roboto-Regular, Roboto;
      }
    </style>
  </defs>
  <g id="team_settings" data-name="team settings" transform="translate(922.497 130)">
    <rect id="rec" class="cls-1" width="427.805" height="49.726"/>
    <path id="team_settings_icon" data-name="team settings icon" class="cls-2" d="M29.178,12.064l-1.4-.421a11.907,11.907,0,0,0-1.263-3.086l.842-1.263a1.067,1.067,0,0,0,0-1.4L24.549,3.086a1.385,1.385,0,0,0-.842-.281,1.994,1.994,0,0,0-.842.281L21.6,3.928a11.907,11.907,0,0,0-3.086-1.263l-.421-1.4C17.956.561,17.675,0,17.114,0H13.046c-.561,0-.842.561-.982.982l-.421,1.4a20.653,20.653,0,0,0-3.086,1.4L7.295,2.946a1.779,1.779,0,0,0-.842-.14c-.281,0-.421,0-.561.14L3.086,5.752a1.067,1.067,0,0,0,0,1.4l.842,1.263a10.749,10.749,0,0,0-1.4,3.226l-1.4.421C.561,12.2,0,12.485,0,13.046v4.068c0,.561.561.842.982.982l1.4.421A11.907,11.907,0,0,0,3.647,21.6l-.842,1.263a1.067,1.067,0,0,0,0,1.4l2.806,2.806a1.063,1.063,0,0,0,.561.281,1.994,1.994,0,0,0,.842-.281l1.263-.842A11.907,11.907,0,0,0,11.363,27.5l.421,1.4c.14.561.421.982.982.982h4.068c.561,0,.842-.561.982-.982l.421-1.4a11.907,11.907,0,0,0,3.086-1.263l1.263.842a1.994,1.994,0,0,0,.842.281c.281,0,.421,0,.561-.281l2.806-2.806a1.067,1.067,0,0,0,0-1.4L25.952,21.6a14.313,14.313,0,0,0,1.263-3.086l1.4-.421c.561-.14.982-.421.982-.982V13.046C30.16,12.485,29.6,12.2,29.178,12.064Zm-.421,4.629h0l-1.4.421a1.7,1.7,0,0,0-.982.982A16.719,16.719,0,0,1,25.251,20.9a1.274,1.274,0,0,0,0,1.4l.7,1.263-2.385,2.385h0l-1.263-.7a1.265,1.265,0,0,0-.7-.14,1.265,1.265,0,0,0-.7.14A9.8,9.8,0,0,1,18.1,26.373a1.7,1.7,0,0,0-.982.982l-.421,1.4H13.327l-.421-1.4a1.7,1.7,0,0,0-.982-.982,16.719,16.719,0,0,1-2.806-1.122,1.265,1.265,0,0,0-.7-.14,1.265,1.265,0,0,0-.7.14l-1.263.7h0L4.208,23.567l.7-1.263a1.274,1.274,0,0,0,0-1.4A9.8,9.8,0,0,1,3.788,18.1a1.7,1.7,0,0,0-.982-.982l-1.4-.281h0V13.327l1.4-.421a1.7,1.7,0,0,0,.982-.982A16.719,16.719,0,0,1,4.91,9.118a1.274,1.274,0,0,0,0-1.4l-.7-1.122h0L6.593,4.208l1.263.7a1.265,1.265,0,0,0,.7.14,1.265,1.265,0,0,0,.7-.14,9.8,9.8,0,0,1,2.806-1.122,1.7,1.7,0,0,0,.982-.982l.421-1.4h3.367l.421,1.4a1.7,1.7,0,0,0,.982.982A16.72,16.72,0,0,1,21.042,4.91a1.265,1.265,0,0,0,.7.14,1.265,1.265,0,0,0,.7-.14l1.122-.7,2.385,2.385h0l-.7,1.263a1.274,1.274,0,0,0,0,1.4,9.8,9.8,0,0,1,1.122,2.806,1.7,1.7,0,0,0,.982.982l1.4.421ZM15.01,6.874a8.277,8.277,0,1,0,0,16.553,8.277,8.277,0,1,0,0-16.553Zm0,1.4a6.666,6.666,0,0,1,5.611,2.946l-3.647,1.964a2.712,2.712,0,0,0-3.928,0L9.4,11.222A6.853,6.853,0,0,1,15.01,8.277Zm-.561,13.607A6.765,6.765,0,0,1,8.277,15.01a5.693,5.693,0,0,1,.561-2.665l3.647,1.964c0,.281-.14.421-.14.7a2.7,2.7,0,0,0,2.1,2.665v4.208Zm-.7-6.874a1.406,1.406,0,0,1,1.4-1.4,1.325,1.325,0,0,1,1.4,1.4,1.325,1.325,0,0,1-1.4,1.4A1.325,1.325,0,0,1,13.748,15.01Zm8.136,0a6.966,6.966,0,0,1-6.172,6.874V17.675a2.86,2.86,0,0,0,2.1-2.665,1.265,1.265,0,0,0-.14-.7l3.647-1.964A6.079,6.079,0,0,1,21.884,15.01Z" transform="translate(373.315 9.945)"/>
    <text id="Team_Settings-2" data-name="Team Settings" class="cls-3" transform="translate(24.2 31.26)"><tspan x="0" y="0">Team Settings</tspan></text>
  </g>
</svg>
